<?xml version="1.0" standalone="no"?><!DOCTYPE svg PUBLIC "-//W3C//DTD SVG 1.1//EN" "http://www.w3.org/Graphics/SVG/1.1/DTD/svg11.dtd"><svg t="1628433728464" class="icon" viewBox="0 0 1024 1024" version="1.1" xmlns="http://www.w3.org/2000/svg" p-id="4305" xmlns:xlink="http://www.w3.org/1999/xlink" width="200" height="200"><defs><style type="text/css"></style></defs><path d="M391.075907 592.906681c9.688663-4.299933 20.980847-5.502317 31.746028-6.77838 134.465504-15.985066 268.960685-31.719422 403.441539-47.581692 59.44181-7.011694 92.640933-42.044582 94.380554-101.465926 1.139963-38.904055 0.581238-77.873602 0.207731-116.810403-0.497327-51.817156-10.743692-62.096267-63.767326-62.199621-146.411581-0.283456-292.824185-0.132006-439.236789 0.002047-10.852162 0.011256-22.25998-0.664126-32.432667 2.316765-18.136056 5.310959-28.998451 18.680455-28.326139 38.141692 0.666172 19.244296 11.037381 32.593326 30.55183 35.756365 13.727653 2.222621 27.872814 2.526543 41.832757 2.547009 119.933533 0.187265 239.867066 0.011256 359.799576 0.232291 16.48137 0.031722 32.959669 1.65264 53.613058 2.761903 0 27.622104 1.01819 50.755987-0.236384 73.768097-1.935072 35.480073-11.598152 45.274136-48.381917 49.754171C647.791709 481.184157 501.270635 498.653017 351.562984 516.641717c-6.339382-21.62246-12.698207-42.144866-18.3663-62.854537-24.644283-90.042759-49.362244-180.073238-73.40073-270.28075-5.650697-21.204951-14.134929-39.038108-38.609343-40.102347-27.967982-1.218758-56.139601-1.697665-84.021625 0.303922-21.456684 1.540076-35.524075 18.003026-34.428114 37.041638 1.222851 21.234627 13.237489 34.92851 34.404578 37.98001 15.259542 2.200108 30.896684 1.769296 50.640354 2.715855 4.725628 14.882965 8.888438 26.499537 12.110829 38.373982 31.787984 117.124558 63.596434 234.245022 95.034447 351.463724 19.698644 73.443709 46.433542 94.891184 121.810277 94.995561 144.855132 0.202615 289.709241 0.093121 434.564373 0.002047 12.437264-0.007163 25.113981 0.529049 37.255509-1.602498 19.119453-3.355421 29.622668-16.502859 31.332612-35.516912 1.677199-18.635429-12.228509-35.266202-32.893154-38.616506-12.181437-1.971911-24.839735-1.302669-37.284161-1.309832-138.624221-0.075725-277.248442 0.011256-415.872662-0.141216-13.95892-0.013303-28.260647 0.221034-41.708937-2.775206-5.505387-1.225921-12.431124-10.56973-12.720719-16.512069C379.13597 604.168166 385.470235 595.394339 391.075907 592.906681z" p-id="4306"></path><path d="M833.169767 784.881994c-25.285896-0.137123-48.251957 21.859867-48.992831 46.923706-0.780783 26.440186 24.426319 51.116191 50.859341 49.795103 24.692379-1.237177 47.246047-25.032116 46.775326-49.345871C881.329627 807.365054 858.386078 785.021164 833.169767 784.881994z" p-id="4307"></path><path d="M385.798716 785.054933c-25.814945-0.426719-48.053436 20.579711-49.024553 46.305629-0.946558 25.073048 20.208251 48.476061 45.314045 50.125631 26.424836 1.738597 51.847855-22.279423 51.643194-48.786123C433.536974 807.558459 411.323043 785.477558 385.798716 785.054933z" p-id="4308"></path></svg>