<?xml version="1.0" standalone="no"?><!DOCTYPE svg PUBLIC "-//W3C//DTD SVG 1.1//EN" "http://www.w3.org/Graphics/SVG/1.1/DTD/svg11.dtd"><svg t="1628433738352" class="icon" viewBox="0 0 1024 1024" version="1.1" xmlns="http://www.w3.org/2000/svg" p-id="4439" xmlns:xlink="http://www.w3.org/1999/xlink" width="200" height="200"><defs><style type="text/css"></style></defs><path d="M972.8512 247.2448a25.58976 25.58976 0 0 0-20.8896-10.8544H233.8816l-23.04-102.1952a25.58976 25.58976 0 0 0-24.9856-19.968H79.9744c-14.1312 0-25.6 11.4688-25.6 25.6s11.4688 25.6 25.6 25.6H165.376l22.9888 102.144v0.0512l68.7616 305.3056v0.0512l31.7952 141.1584c2.6112 11.6736 13.0048 19.968 24.9856 19.968h491.52c14.1312 0 25.6-11.4688 25.6-25.6s-11.4688-25.6-25.6-25.6h-471.04l-20.2752-89.9584h529.2032c10.8544 0 20.48-6.8096 24.1152-17.0496l108.4928-305.3056c2.9184-7.8336 1.6896-16.5376-3.072-23.3472z m-435.3024 131.328H333.6192c-14.1312 0-25.6-11.4688-25.6-25.6s11.4688-25.6 25.6-25.6h203.9296c14.1312 0 25.6 11.4688 25.6 25.6s-11.4688 25.6-25.6 25.6z" fill="#FF623E" p-id="4440"></path><path d="M358.1952 844.5952m-59.3408 0a59.3408 59.3408 0 1 0 118.6816 0 59.3408 59.3408 0 1 0-118.6816 0Z" fill="#FF623E" p-id="4441"></path><path d="M769.9968 844.5952m-59.3408 0a59.3408 59.3408 0 1 0 118.6816 0 59.3408 59.3408 0 1 0-118.6816 0Z" fill="#FF623E" p-id="4442"></path></svg>