<?xml version="1.0" standalone="no"?><!DOCTYPE svg PUBLIC "-//W3C//DTD SVG 1.1//EN" "http://www.w3.org/Graphics/SVG/1.1/DTD/svg11.dtd"><svg t="1628432433062" class="icon" viewBox="0 0 1100 1024" version="1.1" xmlns="http://www.w3.org/2000/svg" p-id="3433" xmlns:xlink="http://www.w3.org/1999/xlink" width="214.84375" height="200"><defs><style type="text/css"></style></defs><path d="M93.285864 487.33822H53.612565a53.612565 53.612565 0 0 1-34.312041-94.358115L446.056545 37.528796a160.837696 160.837696 0 0 1 205.872251 0l428.900523 355.451309a53.612565 53.612565 0 0 1-34.312042 94.894241h-39.673298a26.806283 26.806283 0 0 0-26.806283 26.806282v348.481676a160.837696 160.837696 0 0 1-160.837696 160.837696h-53.612565a107.225131 107.225131 0 0 1-107.225131-107.225131v-160.837696a107.225131 107.225131 0 0 0-107.225131-107.225131 107.225131 107.225131 0 0 0-107.225131 107.225131v160.837696a107.225131 107.225131 0 0 1-107.225131 107.225131h-53.612565a160.837696 160.837696 0 0 1-160.837697-160.837696V514.144503a26.806283 26.806283 0 0 0-28.950785-26.806283z" fill="#3E2AD1" p-id="3434"></path></svg>